<svg width="356" height="56" viewBox="0 0 356 56" fill="none" xmlns="http://www.w3.org/2000/svg">
<path opacity="0.8" d="M6.61903e-06 47.9935C-0.00362681 52.4118 3.57515 55.9965 7.99342 56.0001C12.4117 56.0037 15.9964 52.4249 16 48.0067C16.0036 43.5884 12.4249 40.0037 8.00658 40.0001C3.58831 39.9965 0.00364005 43.5752 6.61903e-06 47.9935ZM308.805 45.4625L309.842 46.5456L308.805 45.4625ZM7.99877 49.5001L301.877 49.7418L301.879 46.7418L8.00124 46.5001L7.99877 49.5001ZM309.842 46.5456L355.965 2.35519L353.889 0.188982L307.767 44.3794L309.842 46.5456ZM301.877 49.7418C304.845 49.7442 307.699 48.599 309.842 46.5456L307.767 44.3794C306.183 45.8971 304.073 46.7436 301.879 46.7418L301.877 49.7418Z" fill="white"/>
</svg>
