<svg width="382" height="50" viewBox="0 0 382 50" fill="none" xmlns="http://www.w3.org/2000/svg">
<path opacity="0.8" d="M381.08 41.7314C381.075 46.1496 377.489 49.7292 373.071 49.7265C368.653 49.7238 365.075 46.1399 365.08 41.7216C365.085 37.3033 368.671 33.7238 373.089 33.7265C377.507 33.7292 381.085 37.3131 381.08 41.7314ZM50.8719 39.5066L51.7778 38.3106L50.8719 39.5066ZM373.078 43.2265L56.8988 43.0334L56.9021 40.0334L373.082 40.2265L373.078 43.2265ZM49.9659 40.7025L0.138054 2.96879L1.94994 0.57685L51.7778 38.3106L49.9659 40.7025ZM56.8988 43.0334C54.3953 43.0319 51.9612 42.2135 49.9659 40.7025L51.7778 38.3106C53.2526 39.4274 55.0517 40.0323 56.9021 40.0334L56.8988 43.0334Z" fill="white"/>
</svg>
