<svg width="396" height="49" viewBox="0 0 396 49" fill="none" xmlns="http://www.w3.org/2000/svg">
<path opacity="0.8" d="M395.386 8.13387C395.39 3.71559 391.811 0.130924 387.393 0.127291C382.975 0.123657 379.39 3.70243 379.386 8.12071C379.383 12.539 382.961 16.1237 387.38 16.1273C391.798 16.1309 395.383 12.5521 395.386 8.13387ZM53.5091 9.78593L52.6236 8.57519L53.5091 9.78593ZM387.387 6.62729L59.4218 6.35758L59.4194 9.35758L387.385 9.62729L387.387 6.62729ZM52.6236 8.57519L0.761082 46.5053L2.53207 48.9268L54.3946 10.9967L52.6236 8.57519ZM59.4218 6.35758C56.9777 6.35557 54.5965 7.13233 52.6236 8.57519L54.3946 10.9967C55.8528 9.93022 57.6128 9.35609 59.4194 9.35758L59.4218 6.35758Z" fill="white"/>
</svg>
